# xmcd
#
# Track frame offsets:
#	150
#	15979
#	30805
#	51986
#	63553
#	87932
#	102761
#	118826
#	136692
#	151163
#	169463
#	184129
#	199446
#
# Disc length: 3034 seconds
# Revision: 0
# Processed by: cddbd v1.5.2PL0 Copyright (c) Steve Scherf et al.
# Submitted via: dBpowerAMP V12.0
#
DISCID=a70bd80d
DTITLE=Emmylou Harris - Western Wall - The Tucson Sessions
DYEAR=1999
DGENRE=Country
TTITLE0=Loving the Highway Man
TTITLE1=Raise the Dead
TTITLE2=For a Dancer
TTITLE3=Western Wall
TTITLE4=1917
TTITLE5=He Was Mine
TTITLE6=Sweet Spot
TTITLE7=Sisters of Mercy
TTITLE8=Falling Down
TTITLE9=Valerie
TTITLE10=This is to Mother You
TTITLE11=All I Left Behind
TTITLE12=Across the Border
EXTD=
EXTT0=
EXTT1=
EXTT2=
EXTT3=
EXTT4=
EXTT5=
EXTT6=
EXTT7=
EXTT8=
EXTT9=
EXTT10=
EXTT11=
EXTT12=
PLAYORDER=
